<svg xmlns="http://www.w3.org/2000/svg" width="96" height="96" viewBox="0 0 48 48">
	<rect width="48" height="48" fill="none" />
	<path fill="none" stroke="white" stroke-linecap="round" stroke-linejoin="round" d="M42.12 32.884V15.116c0-.976-.521-1.878-1.366-2.366L25.365 3.866a2.73 2.73 0 0 0-2.732 0L7.247 12.75a2.73 2.73 0 0 0-1.366 2.366v17.768c0 .976.52 1.878 1.366 2.366l15.387 8.884a2.73 2.73 0 0 0 2.732 0l15.388-8.884a2.73 2.73 0 0 0 1.366-2.366" />
	<path fill="none" stroke="white" stroke-linecap="round" stroke-linejoin="round" d="M35.315 30.533V17.467L24 10.934l-11.315 6.533v13.066L24 37.066zm-4.51-23.527L24 10.934m-6.805 30.06L24 37.066m18.12-15.67l-6.805-3.929m0 13.066v7.857M5.88 26.604l6.805 3.929m0-13.066V9.61" />
	<path fill="none" stroke="white" stroke-linecap="round" stroke-linejoin="round" d="m24.166 26.294l1.808-4.536l-3.376 3.47l-3.317-.93L28.719 17L26.98 28.851zm-1.884 1.449L20.372 31m3.393-2.456l-.665 1.117m-3.384-.81l1.15-1.926" />
</svg>